<?xml version="1.0" standalone="no"?>
<!DOCTYPE svg PUBLIC "-//W3C//DTD SVG 20010904//EN"
 "http://www.w3.org/TR/2001/REC-SVG-20010904/DTD/svg10.dtd">
<svg version="1.0" xmlns="http://www.w3.org/2000/svg"
 width="784.000000pt" height="784.000000pt" viewBox="0 0 784.000000 784.000000"
 preserveAspectRatio="xMidYMid meet">
<metadata>
Created by potrace 1.11, written by Peter Selinger 2001-2013
</metadata>
<g transform="translate(0.000000,784.000000) scale(0.100000,-0.100000)"
fill="#000000" stroke="none">
<path d="M4170 7249 c-234 -24 -580 -100 -832 -183 -549 -181 -1064 -464
-1457 -799 l-53 -45 -56 34 c-32 19 -93 46 -137 61 -69 23 -96 26 -205 26
-107 0 -138 -4 -215 -27 -177 -54 -342 -159 -505 -325 -153 -155 -274 -356
-389 -643 -262 -660 -377 -1462 -270 -1893 56 -228 174 -468 298 -607 55 -62
173 -140 252 -167 88 -30 222 -38 318 -17 41 9 75 15 76 13 1 -1 27 -47 60
-102 408 -696 1001 -1214 1795 -1569 606 -270 1143 -390 1920 -427 717 -35
1327 87 1685 336 150 104 285 256 359 403 39 76 83 215 97 305 6 44 17 80 23
82 6 2 52 15 101 30 399 119 680 448 781 915 26 120 27 449 1 567 -62 290
-190 502 -390 648 l-27 20 62 65 c362 380 445 875 217 1299 -159 296 -443 501
-799 577 -94 20 -349 26 -476 11 l-71 -9 -47 139 c-181 524 -438 849 -846
1071 -174 94 -442 178 -663 207 -129 16 -461 19 -607 4z"/>
</g>
</svg>
